
<svg xmlns="http://www.w3.org/2000/svg"  viewBox="0 0 24 24" width="48px" height="48px"><path d="M 8.4648438 7.9648438 C 8.3368437 7.9648438 8.2088281 8.0138281 8.1113281 8.1113281 C 7.9163281 8.3063281 7.9163281 8.6233594 8.1113281 8.8183594 L 11.292969 12 L 8.1113281 15.181641 C 7.9163281 15.376641 7.9163281 15.693672 8.1113281 15.888672 C 8.3063281 16.083672 8.6233594 16.083672 8.8183594 15.888672 L 12 12.707031 L 15.181641 15.888672 C 15.376641 16.083672 15.693672 16.083672 15.888672 15.888672 C 16.083672 15.693672 16.083672 15.376641 15.888672 15.181641 L 12.707031 12 L 15.888672 8.8183594 C 16.083672 8.6233594 16.083672 8.3063281 15.888672 8.1113281 C 15.693672 7.9163281 15.376641 7.9163281 15.181641 8.1113281 L 12 11.292969 L 8.8183594 8.1113281 C 8.7208594 8.0138281 8.5928438 7.9648438 8.4648438 7.9648438 z"/></svg>