<svg xmlns="http://www.w3.org/2000/svg" x="0px" y="0px"
width="48" height="48"
viewBox="0 0 48 48">
<path d="M20.5 6h-12C7.122 6 6 7.122 6 8.5v12C6 21.878 7.122 23 8.5 23h12c1.378 0 2.5-1.122 2.5-2.5v-12C23 7.122 21.878 6 20.5 6zM39.5 6h-12C26.122 6 25 7.122 25 8.5v12c0 1.378 1.122 2.5 2.5 2.5h12c1.378 0 2.5-1.122 2.5-2.5v-12C42 7.122 40.878 6 39.5 6zM20.5 25h-12C7.122 25 6 26.122 6 27.5v12C6 40.878 7.122 42 8.5 42h12c1.378 0 2.5-1.122 2.5-2.5v-12C23 26.122 21.878 25 20.5 25zM39.5 25h-12c-1.378 0-2.5 1.122-2.5 2.5v12c0 1.378 1.122 2.5 2.5 2.5h12c1.378 0 2.5-1.122 2.5-2.5v-12C42 26.122 40.878 25 39.5 25z"></path>
</svg>